<?xml version="1.0" encoding="UTF-8"?>
<!DOCTYPE svg PUBLIC "-//W3C//DTD SVG 1.1//EN" "http://www.w3.org/Graphics/SVG/1.1/DTD/svg11.dtd">
<svg xmlns="http://www.w3.org/2000/svg" version="1.1" width="1587px" height="1153px" style="shape-rendering:geometricPrecision; text-rendering:geometricPrecision; image-rendering:optimizeQuality; fill-rule:evenodd; clip-rule:evenodd" xmlns:xlink="http://www.w3.org/1999/xlink">
<g><path style="opacity:0.095" fill="#161713" d="M 150.5,44.5 C 150.56,43.9569 150.893,43.6236 151.5,43.5C 154.072,50.2276 155.072,57.2276 154.5,64.5C 161.701,62.4663 169.034,61.633 176.5,62C 169.249,62.4473 162.416,64.2806 156,67.5C 153.816,70.3345 154.316,71.6678 157.5,71.5C 157.549,74.0991 158.549,76.2658 160.5,78C 157.698,78.0242 156.364,76.5242 156.5,73.5C 154.654,73.2222 153.32,73.8888 152.5,75.5C 153.711,76.8745 154.711,78.3745 155.5,80C 153.58,82.9004 153.247,85.9004 154.5,89C 154.167,89.1667 153.833,89.3333 153.5,89.5C 152.213,86.2913 152.213,83.1247 153.5,80C 151.609,76.5823 150.275,76.749 149.5,80.5C 150.167,81.5 150.833,82.5 151.5,83.5C 148.649,86.2038 147.149,89.5371 147,93.5C 146.13,92.8921 145.63,92.0588 145.5,91C 146.206,88.3805 147.206,85.8805 148.5,83.5C 148.192,82.6919 147.692,82.0253 147,81.5C 145.612,82.5536 144.112,82.7203 142.5,82C 141.24,79.7323 139.906,77.5656 138.5,75.5C 136.52,79.1567 133.52,80.6567 129.5,80C 132.965,79.0343 135.298,76.8677 136.5,73.5C 134.54,73.8798 132.54,73.3798 130.5,72C 134.432,72.3917 137.766,70.8917 140.5,67.5C 142.258,68.1279 143.758,69.1279 145,70.5C 145.833,69.6667 146.667,68.8333 147.5,68C 144.925,66.2132 142.259,64.5466 139.5,63C 141.178,63.1123 142.845,63.6123 144.5,64.5C 147.09,62.6197 148.59,63.2864 149,66.5C 151.811,64.4289 153.311,61.5956 153.5,58C 152.999,53.2567 151.999,48.7567 150.5,44.5 Z M 139.5,70.5 C 143.451,70.7181 144.118,72.0514 141.5,74.5C 140.205,73.9017 138.872,73.4017 137.5,73C 138.381,72.2917 139.047,71.4584 139.5,70.5 Z"/></g>
<g><path style="opacity:0.81" fill="#cccdcc" d="M 364.5,181.5 C 367.167,181.833 369.833,182.167 372.5,182.5C 372.5,183.5 372.5,184.5 372.5,185.5C 369.05,184.756 367.384,186.09 367.5,189.5C 369.606,189.679 371.272,190.679 372.5,192.5C 371.167,201.833 371.167,211.167 372.5,220.5C 368.645,222.003 364.645,222.67 360.5,222.5C 360.085,219.245 358.585,216.578 356,214.5C 352.68,217.331 349.014,217.997 345,216.5C 344.362,215.391 343.862,214.225 343.5,213C 344.566,209.539 345.899,206.206 347.5,203C 346.5,202.667 345.5,202.333 344.5,202C 345.88,200.075 347.38,198.241 349,196.5C 349.701,192.029 350.867,187.696 352.5,183.5C 352.833,183.833 353.167,184.167 353.5,184.5C 351.757,190.716 350.59,197.05 350,203.5C 347.495,206.819 346.495,210.486 347,214.5C 347.561,215.022 348.228,215.355 349,215.5C 351.747,213.041 354.914,212.208 358.5,213C 359.211,214.255 360.044,215.421 361,216.5C 361.802,208.451 361.635,200.451 360.5,192.5C 361.728,190.679 363.394,189.679 365.5,189.5C 365.241,185.932 363.241,184.599 359.5,185.5C 359.5,184.5 359.5,183.5 359.5,182.5C 361.415,182.784 363.081,182.451 364.5,181.5 Z"/></g>
<g><path style="opacity:0.09" fill="#161713" d="M 1096.5,202.5 C 1099.71,201.974 1102.21,200.308 1104,197.5C 1104.13,201.21 1102.29,203.21 1098.5,203.5C 1098.5,204.5 1098.5,205.5 1098.5,206.5C 1099.82,206.33 1100.99,206.663 1102,207.5C 1102.69,209.568 1102.52,211.568 1101.5,213.5C 1104.88,213.341 1108.22,213.841 1111.5,215C 1108.55,215.096 1105.88,215.929 1103.5,217.5C 1104.5,218.167 1105.5,218.833 1106.5,219.5C 1106.17,219.833 1105.83,220.167 1105.5,220.5C 1102.97,219.212 1100.47,219.212 1098,220.5C 1097.1,218.673 1095.77,217.34 1094,216.5C 1093.5,216.833 1093,217.167 1092.5,217.5C 1093.48,218.981 1094.65,220.315 1096,221.5C 1096.67,222.167 1096.67,222.833 1096,223.5C 1093.19,220.608 1090.02,218.774 1086.5,218C 1083.43,222.855 1080.93,228.022 1079,233.5C 1079.47,227.26 1081.64,221.593 1085.5,216.5C 1082.37,214.901 1079.04,213.734 1075.5,213C 1072.79,211.985 1070.46,210.485 1068.5,208.5C 1068.67,208.167 1068.83,207.833 1069,207.5C 1074.15,211.55 1079.98,213.384 1086.5,213C 1086.8,209.691 1087.3,206.191 1088,202.5C 1088.5,204.81 1088.66,207.143 1088.5,209.5C 1091.97,209.723 1092.97,208.389 1091.5,205.5C 1093.89,203.269 1095.72,200.603 1097,197.5C 1097.64,199.265 1097.47,200.932 1096.5,202.5 Z M 1096.5,202.5 C 1096.79,204.288 1096.45,205.955 1095.5,207.5C 1094.5,207.167 1093.83,206.5 1093.5,205.5C 1094.55,204.452 1095.55,203.452 1096.5,202.5 Z M 1098.5,214.5 C 1102.1,216.49 1102.1,217.323 1098.5,217C 1097.4,216.23 1097.4,215.397 1098.5,214.5 Z"/></g>
<g><path style="opacity:0.851" fill="#cccdcc" d="M 54.5,312.5 C 59.1785,312.334 63.8452,312.501 68.5,313C 74.346,314.147 76.0127,317.48 73.5,323C 79.2025,325.259 80.0358,328.759 76,333.5C 72.2831,338.67 68.9497,338.337 66,332.5C 63.3333,333.833 60.6667,333.833 58,332.5C 55.0503,338.337 51.7169,338.67 48,333.5C 44.3648,329.71 44.6981,326.376 49,323.5C 49.3333,320.833 49.6667,318.167 50,315.5C 51.4087,314.219 52.9087,313.219 54.5,312.5 Z M 54.5,315.5 C 58.8461,315.334 63.1794,315.501 67.5,316C 69.779,316.473 71.779,317.473 73.5,319C 72.646,320.022 71.646,320.855 70.5,321.5C 68.0621,319.196 65.2287,317.53 62,316.5C 58.51,317.332 55.51,318.999 53,321.5C 51.8315,320.991 50.9981,320.158 50.5,319C 51.7305,317.595 53.0639,316.429 54.5,315.5 Z"/></g>
<g><path style="opacity:0.792" fill="#cccdcc" d="M 1288.5,396.5 C 1291.91,396.384 1293.24,398.05 1292.5,401.5C 1294.79,401.244 1296.96,401.577 1299,402.5C 1300,437.167 1301,437.167 1302,402.5C 1303.33,401.167 1304.67,401.167 1306,402.5C 1306.33,411.5 1306.67,420.5 1307,429.5C 1307.69,428.975 1308.19,428.308 1308.5,427.5C 1307.94,426.061 1307.6,424.561 1307.5,423C 1308.19,416.517 1308.69,410.017 1309,403.5C 1309.67,402.167 1310.33,400.833 1311,399.5C 1311.33,399.833 1311.67,400.167 1312,400.5C 1310.08,404.089 1309.24,408.089 1309.5,412.5C 1309.67,414.833 1309.83,417.167 1310,419.5C 1311.47,420.381 1312.3,421.714 1312.5,423.5C 1311.67,425.908 1310.67,428.242 1309.5,430.5C 1307.99,431.747 1306.49,431.747 1305,430.5C 1304.33,394.5 1303.67,394.5 1303,430.5C 1296.45,431.508 1289.78,431.508 1283,430.5C 1283.73,423.335 1283.56,416.169 1282.5,409C 1282.89,406.541 1284.22,404.874 1286.5,404C 1286.04,403.586 1285.71,403.086 1285.5,402.5C 1287.04,400.747 1288.04,398.747 1288.5,396.5 Z M 1295.5,403.5 C 1297.23,403.843 1297.73,404.843 1297,406.5C 1295.96,405.756 1295.46,404.756 1295.5,403.5 Z"/></g>
<g><path style="opacity:0.118" fill="#161713" d="M 345.5,427.5 C 347.886,429.344 347.886,431.511 345.5,434C 347.289,434.52 348.956,434.187 350.5,433C 352.342,431.656 354.008,430.156 355.5,428.5C 356.902,428.865 357.902,429.699 358.5,431C 357.01,434.655 357.177,438.155 359,441.5C 359.972,439.695 361.139,438.028 362.5,436.5C 363.799,439.434 363.132,441.934 360.5,444C 359.216,444.684 358.049,444.517 357,443.5C 356.5,444 356,444.5 355.5,445C 357.717,446.268 359.717,447.768 361.5,449.5C 361,449.833 360.5,450.167 360,450.5C 357.95,449.209 355.783,448.709 353.5,449C 354.5,449.833 355.5,450.667 356.5,451.5C 352.091,460.749 350.757,460.749 352.5,451.5C 349.351,451.789 346.351,451.289 343.5,450C 341.963,448.89 341.297,447.39 341.5,445.5C 339.167,446.833 336.833,448.167 334.5,449.5C 334.98,446.995 335.98,444.662 337.5,442.5C 339.216,442.003 340.883,441.669 342.5,441.5C 340.5,439.833 338.5,438.167 336.5,436.5C 339.21,435.738 341.71,436.405 344,438.5C 344.5,438 345,437.5 345.5,437C 343.82,436.653 342.82,435.653 342.5,434C 343.391,431.721 344.391,429.554 345.5,427.5 Z"/></g>
<g><path style="opacity:0.125" fill="#161713" d="M 52.5,516.5 C 56.1251,517.322 59.6251,518.656 63,520.5C 63.6172,521.449 63.4506,522.282 62.5,523C 59.8453,523.727 57.5119,524.894 55.5,526.5C 57.0243,528.858 59.0243,530.691 61.5,532C 59.1581,533.398 56.8248,533.065 54.5,531C 52.5273,530.505 50.5273,530.338 48.5,530.5C 48.5,531.5 48.5,532.5 48.5,533.5C 43.6632,533.884 38.9966,533.217 34.5,531.5C 32.7295,532.035 32.3961,532.869 33.5,534C 41.3324,534.033 48.9991,534.7 56.5,536C 48.2449,535.925 39.9116,535.925 31.5,536C 30.4238,534.274 30.2571,532.441 31,530.5C 32.8663,527.554 34.3663,524.387 35.5,521C 40.9215,518.211 46.5882,517.711 52.5,519.5C 52.5,518.5 52.5,517.5 52.5,516.5 Z"/></g>
<g><path style="opacity:0.115" fill="#161713" d="M 1517.5,575.5 C 1522.39,576.202 1524.22,578.869 1523,583.5C 1528.92,576.61 1529.75,577.11 1525.5,585C 1527,585.507 1528.16,585.007 1529,583.5C 1530.69,585.017 1532.19,586.684 1533.5,588.5C 1531.74,589.754 1530.24,589.421 1529,587.5C 1528.11,592.058 1525.44,595.058 1521,596.5C 1520.69,598.391 1521.52,599.725 1523.5,600.5C 1523.19,601.308 1522.69,601.975 1522,602.5C 1519.84,601.174 1518.01,599.507 1516.5,597.5C 1516.98,596.522 1517.64,595.689 1518.5,595C 1517.83,594.333 1517.17,594.333 1516.5,595C 1515.31,596.353 1513.98,597.52 1512.5,598.5C 1512.17,598 1511.83,597.5 1511.5,597C 1512.44,595.056 1513.77,593.389 1515.5,592C 1513.95,591.667 1512.62,592.167 1511.5,593.5C 1509.5,592.167 1507.83,590.5 1506.5,588.5C 1508.36,587.334 1510.03,587.667 1511.5,589.5C 1511.92,586.214 1510.92,583.214 1508.5,580.5C 1508.92,579.328 1509.59,578.328 1510.5,577.5C 1513.45,579.873 1516.79,580.707 1520.5,580C 1518.86,578.871 1517.86,577.371 1517.5,575.5 Z"/></g>
<g><path style="opacity:0.851" fill="#cccdcc" d="M 1422.5,725.5 C 1427.18,725.334 1431.85,725.501 1436.5,726C 1442.35,727.147 1444.01,730.48 1441.5,736C 1447.2,738.259 1448.04,741.759 1444,746.5C 1440.28,751.67 1436.95,751.337 1434,745.5C 1431.33,746.833 1428.67,746.833 1426,745.5C 1423.05,751.337 1419.72,751.67 1416,746.5C 1412.36,742.71 1412.7,739.376 1417,736.5C 1417.33,733.833 1417.67,731.167 1418,728.5C 1419.41,727.219 1420.91,726.219 1422.5,725.5 Z M 1422.5,728.5 C 1426.85,728.334 1431.18,728.501 1435.5,729C 1437.78,729.473 1439.78,730.473 1441.5,732C 1440.65,733.022 1439.65,733.855 1438.5,734.5C 1436.06,732.196 1433.23,730.53 1430,729.5C 1426.51,730.332 1423.51,731.999 1421,734.5C 1419.83,733.991 1419,733.158 1418.5,732C 1419.73,730.595 1421.06,729.429 1422.5,728.5 Z"/></g>
<g><path style="opacity:0.791" fill="#cccdcc" d="M 653.5,747.5 C 656.482,747.963 659.482,748.296 662.5,748.5C 662.5,749.5 662.5,750.5 662.5,751.5C 660.5,751.5 658.5,751.5 656.5,751.5C 656.5,752.833 656.5,754.167 656.5,755.5C 658.714,755.291 660.381,756.124 661.5,758C 660.207,767.833 660.207,777.666 661.5,787.5C 657.5,787.5 653.5,787.5 649.5,787.5C 649.219,785.037 648.219,782.87 646.5,781C 643.743,781.601 640.909,782.435 638,783.5C 636.289,783.561 634.956,782.894 634,781.5C 633.029,777.135 633.862,773.135 636.5,769.5C 635.624,768.749 634.624,768.249 633.5,768C 637.945,762.737 640.611,756.571 641.5,749.5C 641.833,750.167 642.167,750.833 642.5,751.5C 641.092,761.455 638.925,771.121 636,780.5C 636.561,781.022 637.228,781.355 638,781.5C 640.136,779.541 642.636,778.207 645.5,777.5C 647.766,777.931 649.266,779.264 650,781.5C 650.786,773.63 650.619,765.797 649.5,758C 650.619,756.124 652.286,755.291 654.5,755.5C 654.5,754.167 654.5,752.833 654.5,751.5C 652.5,751.5 650.5,751.5 648.5,751.5C 648.5,750.5 648.5,749.5 648.5,748.5C 650.415,748.784 652.081,748.451 653.5,747.5 Z"/></g>
<g><path style="opacity:0.81" fill="#cccdcc" d="M 1164.5,785.5 C 1167.17,785.833 1169.83,786.167 1172.5,786.5C 1172.5,787.5 1172.5,788.5 1172.5,789.5C 1169.05,788.756 1167.38,790.09 1167.5,793.5C 1169.61,793.679 1171.27,794.679 1172.5,796.5C 1171.17,805.833 1171.17,815.167 1172.5,824.5C 1168.64,826.003 1164.64,826.67 1160.5,826.5C 1160.08,823.245 1158.58,820.578 1156,818.5C 1152.68,821.331 1149.01,821.997 1145,820.5C 1144.36,819.391 1143.86,818.225 1143.5,817C 1144.57,813.539 1145.9,810.206 1147.5,807C 1146.5,806.667 1145.5,806.333 1144.5,806C 1145.88,804.075 1147.38,802.241 1149,800.5C 1149.7,796.029 1150.87,791.696 1152.5,787.5C 1152.83,787.833 1153.17,788.167 1153.5,788.5C 1151.76,794.716 1150.59,801.05 1150,807.5C 1147.49,810.819 1146.49,814.486 1147,818.5C 1147.56,819.022 1148.23,819.355 1149,819.5C 1151.75,817.041 1154.91,816.208 1158.5,817C 1159.21,818.255 1160.04,819.421 1161,820.5C 1161.8,812.451 1161.63,804.451 1160.5,796.5C 1161.73,794.679 1163.39,793.679 1165.5,793.5C 1165.24,789.932 1163.24,788.599 1159.5,789.5C 1159.5,788.5 1159.5,787.5 1159.5,786.5C 1161.41,786.784 1163.08,786.451 1164.5,785.5 Z"/></g>
<g><path style="opacity:0.851" fill="#cccdcc" d="M 353.5,832.5 C 358.179,832.334 362.845,832.501 367.5,833C 373.346,834.147 375.013,837.48 372.5,843C 378.203,845.259 379.036,848.759 375,853.5C 371.283,858.67 367.95,858.337 365,852.5C 362.333,853.833 359.667,853.833 357,852.5C 354.05,858.337 350.717,858.67 347,853.5C 343.365,849.71 343.698,846.376 348,843.5C 348.333,840.833 348.667,838.167 349,835.5C 350.409,834.219 351.909,833.219 353.5,832.5 Z M 353.5,835.5 C 357.846,835.334 362.179,835.501 366.5,836C 368.779,836.473 370.779,837.473 372.5,839C 371.646,840.022 370.646,840.855 369.5,841.5C 367.062,839.196 364.229,837.53 361,836.5C 357.51,837.332 354.51,838.999 352,841.5C 350.831,840.991 349.998,840.158 349.5,839C 350.731,837.595 352.064,836.429 353.5,835.5 Z"/></g>
<g><path style="opacity:0.087" fill="#161713" d="M 897.5,874.5 C 898.077,873.227 898.743,873.227 899.5,874.5C 901.702,878.939 903.202,883.606 904,888.5C 904.414,888.957 904.914,889.291 905.5,889.5C 910.048,886.26 915.048,884.76 920.5,885C 915.847,886.16 911.513,887.993 907.5,890.5C 904.587,892.901 904.921,894.234 908.5,894.5C 908.137,896.911 909.137,898.411 911.5,899C 910.5,899.667 909.5,899.667 908.5,899C 907.287,896.674 905.954,896.341 904.5,898C 907.401,899.701 908.067,902.035 906.5,905C 908.841,910.578 908.341,910.745 905,905.5C 903.036,908.018 902.37,910.684 903,913.5C 901.764,910.583 901.264,907.583 901.5,904.5C 900.232,905.428 898.899,905.595 897.5,905C 896.213,903.59 895.046,902.09 894,900.5C 892.667,903.167 890.667,905.167 888,906.5C 889.645,904.61 890.812,902.277 891.5,899.5C 889.891,899.906 888.557,899.906 887.5,899.5C 889.918,898.585 891.918,897.085 893.5,895C 894.899,894.405 896.232,894.572 897.5,895.5C 898.386,894.675 898.719,893.675 898.5,892.5C 896.25,892.819 894.25,892.319 892.5,891C 895.683,890.823 898.85,890.657 902,890.5C 902.357,884.587 900.857,879.254 897.5,874.5 Z M 894.5,896.5 C 896.332,897.14 896.665,898.14 895.5,899.5C 893.481,898.867 893.147,897.867 894.5,896.5 Z M 903.5,900.5 C 905.273,901.314 905.773,902.648 905,904.5C 903.812,903.437 903.312,902.103 903.5,900.5 Z"/></g>
<g><path style="opacity:0.098" fill="#161713" d="M 1461.5,976.5 C 1463.12,977.841 1464.12,979.674 1464.5,982C 1472.94,983.677 1474.27,987.51 1468.5,993.5C 1466.55,990.072 1464.22,989.738 1461.5,992.5C 1462.17,993.5 1462.83,994.5 1463.5,995.5C 1455.15,998.487 1452.49,995.821 1455.5,987.5C 1453.83,986.5 1452.5,985.167 1451.5,983.5C 1452.39,982.41 1453.39,982.41 1454.5,983.5C 1454.92,976.27 1457.09,975.603 1461,981.5C 1461.49,979.866 1461.66,978.199 1461.5,976.5 Z"/></g>
<g><path style="opacity:0.787" fill="#cccdcc" d="M 750.5,1021.5 C 754.795,1020.95 756.295,1022.62 755,1026.5C 757.42,1025.51 759.753,1025.85 762,1027.5C 762.667,1062.17 763.333,1062.17 764,1027.5C 765.356,1026.62 766.856,1026.29 768.5,1026.5C 768.168,1035.52 768.502,1044.52 769.5,1053.5C 769.951,1045.28 770.451,1036.95 771,1028.5C 771.583,1027 772.416,1025.67 773.5,1024.5C 774.308,1024.81 774.975,1025.31 775.5,1026C 773.007,1029.17 772.007,1032.84 772.5,1037C 772.597,1041.25 773.597,1045.25 775.5,1049C 773.571,1050.69 772.571,1052.86 772.5,1055.5C 770.533,1055.74 768.699,1055.41 767,1054.5C 766.667,1045.83 766.333,1037.17 766,1028.5C 765.5,1037.49 765.334,1046.49 765.5,1055.5C 763.833,1055.5 762.167,1055.5 760.5,1055.5C 760.5,1046.5 760.5,1037.5 760.5,1028.5C 757.093,1028.13 756.593,1029.13 759,1031.5C 759.5,1039.83 759.666,1048.16 759.5,1056.5C 754.833,1056.5 750.167,1056.5 745.5,1056.5C 745.334,1047.83 745.5,1039.16 746,1030.5C 747.395,1028.86 748.895,1027.36 750.5,1026C 749.272,1024.51 749.272,1023.01 750.5,1021.5 Z"/></g>
<g><path style="opacity:0.121" fill="#161713" d="M 49.5,1074.5 C 55.8754,1076.93 62.542,1078.76 69.5,1080C 73.8553,1082.86 75.1887,1086.69 73.5,1091.5C 71.392,1092.48 69.392,1092.15 67.5,1090.5C 67.7093,1089.91 68.0426,1089.41 68.5,1089C 66.0923,1086.84 63.759,1085.34 61.5,1084.5C 59.8366,1085.88 58.5032,1085.54 57.5,1083.5C 55.8437,1085.02 54.677,1084.69 54,1082.5C 53.586,1082.96 53.086,1083.29 52.5,1083.5C 51.4032,1081.77 50.2365,1080.1 49,1078.5C 48.4209,1077.07 48.5876,1075.74 49.5,1074.5 Z"/></g>
</svg>
